<svg width="153" height="62" xmlns:xlink="http://www.w3.org/1999/xlink">
  <defs>
    <path id="a" d="M.153.108h9.34V24.79H.154z"/>
    <path id="c" d="M0 .143h43.024v60.189H0z"/>
  </defs>
  <g fill="none" fill-rule="evenodd">
    <path d="M58.238 12.08h3.204c1.29 0 2.257-.274 2.902-.823.644-.548.967-1.339.967-2.373 0-1.033-.32-1.859-.96-2.476-.639-.617-1.583-.925-2.83-.925h-3.283v6.597zm3.283-10.157c2.622 0 4.678.599 6.169 1.796 1.49 1.197 2.236 2.85 2.236 4.96 0 1.16-.312 2.167-.936 3.021-.624.855-1.538 1.546-2.743 2.073 1.364.401 2.344 1.068 2.942 2.002.597.933.896 2.091.896 3.472v1.171c0 .506.1.9.301 1.179.2.279.533.445.999.498l.57.08v2.784h-2.394c-1.512 0-2.574-.406-3.188-1.219-.613-.811-.92-1.861-.92-3.148V19.28c0-1.118-.298-1.996-.895-2.634-.598-.638-1.44-.974-2.53-1.005h-3.79v6.075l2.474.475v2.769H51.15v-2.77l2.459-.474V5.182l-2.459-.475V1.923h10.372zm19.871 9.161c-.857 0-1.533.326-2.03.98-.497.655-.804 1.514-.92 2.58l.048.078h5.677v-.41c0-.982-.23-1.765-.69-2.35-.46-.586-1.155-.878-2.085-.878m.412 14.207c-2.474 0-4.451-.791-5.931-2.374-1.48-1.581-2.22-3.59-2.22-6.027v-.633c0-2.542.7-4.636 2.101-6.281 1.4-1.646 3.28-2.463 5.638-2.453 2.315 0 4.112.697 5.392 2.089 1.278 1.392 1.918 3.275 1.918 5.648v2.516H78.458l-.032.095c.085 1.129.462 2.057 1.134 2.784.671.728 1.583 1.092 2.736 1.092 1.025 0 1.876-.103 2.553-.309.676-.205 1.416-.53 2.22-.972l1.253 2.847c-.709.56-1.626 1.029-2.752 1.409-1.125.38-2.381.569-3.766.569m8.833-3.101l2.22-.475V11.1l-2.458-.474V7.84h6.772l.206 2.452c.57-.875 1.274-1.556 2.11-2.04.834-.486 1.77-.729 2.806-.729 1.734 0 3.087.544 4.06 1.63.973 1.087 1.459 2.79 1.459 5.11v7.452l2.22.475v2.769h-8.849v-2.77l1.982-.474V14.28c0-1.15-.232-1.965-.697-2.445-.466-.48-1.169-.72-2.11-.72-.613 0-1.163.124-1.649.372a3.395 3.395 0 0 0-1.221 1.052v9.176l1.871.475v2.769h-8.722v-2.77zm27.705-18.542V7.84h3.013v3.243h-3.013v8.718c0 .665.137 1.14.412 1.424.275.284.645.427 1.11.427.318 0 .595-.013.833-.04.238-.026.505-.071.8-.134l.397 3.338c-.518.159-1.03.277-1.538.356a10.71 10.71 0 0 1-1.649.119c-1.597 0-2.826-.438-3.687-1.313-.862-.876-1.293-2.263-1.293-4.161v-8.734h-2.521V7.84h2.521V3.648h4.615zm17.286 19.143a5.727 5.727 0 0 1-2.038 1.851c-.809.432-1.731.648-2.767.648-1.808 0-3.225-.577-4.25-1.732-1.026-1.155-1.539-2.95-1.539-5.386v-7.073l-1.887-.474V7.84h6.518v10.363c0 1.245.209 2.138.627 2.682.417.543 1.038.814 1.863.814.73 0 1.361-.118 1.895-.356.534-.237.97-.577 1.308-1.02v-9.224l-2.03-.474V7.84h6.661v13.875l2.078.475v2.769h-6.138l-.301-2.168z" fill="#FFF"/>
    <g transform="translate(143.246 .17)">
      <mask id="b" fill="#fff">
        <use xlink:href="#a"/>
      </mask>
      <path fill="#FFF" mask="url(#b)" d="M.153 2.893V.108h7.105v21.438l2.236.474v2.769H.39V22.02l2.236-.474V3.367z"/>
    </g>
    <path d="M53.858 31.908v12.065h2.935c1.39 0 2.533-.485 3.431-1.454.898-.97 1.346-2.195 1.346-3.678v-1.83c0-1.463-.45-2.68-1.35-3.65-.902-.968-2.044-1.453-3.427-1.453h-2.935zm2.935-.982c1.718 0 3.137.571 4.256 1.714 1.12 1.142 1.68 2.61 1.68 4.4v1.8c0 1.798-.56 3.265-1.68 4.401-1.12 1.137-2.538 1.705-4.256 1.705h-5.656v-.848l1.573-.125V31.908l-1.573-.126v-.856h5.656zm12.567 4.39c-.85 0-1.566.326-2.148.978-.582.651-.922 1.468-1.018 2.45l.02.049h6.118v-.29c0-.904-.267-1.662-.8-2.272-.535-.61-1.259-.915-2.172-.915m.154 9.832c-1.313 0-2.4-.48-3.262-1.44-.863-.96-1.294-2.18-1.294-3.664v-.529c0-1.49.43-2.725 1.289-3.707.859-.983 1.896-1.473 3.113-1.473 1.28 0 2.287.404 3.02 1.213.734.808 1.101 1.887 1.101 3.235v.982h-7.374v.28c0 1.168.314 2.148.941 2.941.628.793 1.45 1.19 2.466 1.19.714 0 1.326-.1 1.834-.3a3.625 3.625 0 0 0 1.303-.856l.492.79c-.392.41-.888.736-1.486.977-.598.24-1.313.36-2.143.36m5.869-9.677v-.943h1.727v-1.522c0-1.046.264-1.855.792-2.426.527-.571 1.264-.857 2.21-.857.206 0 .418.016.637.048.219.032.44.077.666.135l-.145.953a4.127 4.127 0 0 0-1.042-.125c-.63 0-1.115.2-1.453.597-.337.398-.507.957-.507 1.675v1.522h2.49v.944h-2.49v8.502l1.574.125v.848h-4.305v-.848l1.573-.125v-8.502h-1.727zm11.393-.154c-.849 0-1.565.326-2.147.978-.583.651-.922 1.468-1.018 2.45l.019.049h6.12v-.29c0-.904-.268-1.662-.802-2.272-.534-.61-1.258-.915-2.172-.915m.155 9.832c-1.313 0-2.4-.48-3.262-1.44-.863-.96-1.294-2.18-1.294-3.664v-.529c0-1.49.43-2.725 1.289-3.707.859-.983 1.896-1.473 3.112-1.473 1.28 0 2.288.404 3.022 1.213.733.808 1.1 1.887 1.1 3.235v.982h-7.374v.28c0 1.168.313 2.148.94 2.941.628.793 1.45 1.19 2.467 1.19.714 0 1.325-.1 1.834-.3a3.622 3.622 0 0 0 1.303-.856l.492.79c-.393.41-.888.736-1.486.977-.599.24-1.313.36-2.143.36m5.82-1.049l1.573-.125V35.51l-1.573-.125v-.857h2.596l.106 1.82c.335-.642.787-1.138 1.357-1.488.57-.35 1.243-.524 2.022-.524 1.132 0 1.995.344 2.587 1.034.591.69.887 1.768.887 3.231v5.373l1.574.125v.848h-4.305v-.848l1.573-.125V38.61c0-1.194-.223-2.038-.67-2.533-.448-.494-1.083-.741-1.907-.741-.81 0-1.472.213-1.983.64-.512.427-.88.993-1.106 1.7v6.297l1.574.125v.848H92.75v-.848zm20.52-6.355h-.945l-.136-1.473a2.93 2.93 0 0 0-1.095-.703c-.441-.167-.948-.25-1.52-.25-.843 0-1.476.18-1.897.544-.422.362-.632.787-.632 1.275 0 .482.181.88.545 1.195.364.314 1.089.59 2.177.828 1.242.276 2.172.653 2.79 1.13.617.48.926 1.13.926 1.95 0 .868-.353 1.569-1.057 2.104-.705.537-1.636.805-2.794.805a6.542 6.542 0 0 1-2.11-.323 5.01 5.01 0 0 1-1.645-.91v-2.099h.936l.164 1.483c.31.308.7.532 1.173.67a5.3 5.3 0 0 0 1.482.206c.836 0 1.496-.183 1.978-.549.483-.365.724-.808.724-1.329 0-.487-.2-.914-.603-1.28-.402-.366-1.128-.665-2.177-.895-1.241-.27-2.163-.628-2.765-1.074-.602-.446-.902-1.07-.902-1.873 0-.796.338-1.469 1.013-2.017.676-.55 1.567-.823 2.674-.823.765 0 1.465.116 2.099.35.634.235 1.15.551 1.55.949l.047 2.11zm6.766-2.427c-.849 0-1.565.326-2.147.978-.583.651-.922 1.468-1.018 2.45l.019.049h6.12v-.29c0-.904-.268-1.662-.802-2.272-.534-.61-1.258-.915-2.172-.915m.155 9.832c-1.313 0-2.4-.48-3.262-1.44-.863-.96-1.294-2.18-1.294-3.664v-.529c0-1.49.43-2.725 1.289-3.707.858-.983 1.896-1.473 3.112-1.473 1.28 0 2.288.404 3.021 1.213.734.808 1.1 1.887 1.1 3.235v.982h-7.373v.28c0 1.168.313 2.148.94 2.941.628.793 1.45 1.19 2.467 1.19.714 0 1.325-.1 1.834-.3a3.622 3.622 0 0 0 1.303-.856l.492.79c-.393.41-.888.736-1.487.977-.598.24-1.312.36-2.142.36" fill="#FFF"/>
    <g transform="translate(0 1.56)">
      <mask id="d" fill="#fff">
        <use xlink:href="#c"/>
      </mask>
      <path d="M36.096 28.897l-5.147 3.492 5.147 2.669v11.707l-2.894-1.606-11.908-6.61V26.023l4.508-2.465v-6.571l-4.508-2.362-5.785 2.772v27.931l-9.263-6.16V11.44l15.048-8.83 14.802 8.625v17.662zM0 .143v43.415l21.29 16.774 21.734-16.774V.143H0z" fill="#FFF" mask="url(#d)"/>
    </g>
  </g>
</svg>
