<?xml version="1.0" encoding="UTF-8"?>
<svg width="512px" height="512px" viewBox="0 0 512 512" version="1.1" xmlns="http://www.w3.org/2000/svg" xmlns:xlink="http://www.w3.org/1999/xlink">
    <!-- Generator: Sketch 48.2 (47327) - http://www.bohemiancoding.com/sketch -->
    <title>bulb</title>
    <desc>Created with Sketch.</desc>
    <defs></defs>
    <g id="Page-1" stroke="none" stroke-width="1" fill="none" fill-rule="evenodd">
        <g id="bulb" fill-rule="nonzero">
            <g id="Group" transform="translate(98.000000, 0.000000)">
                <path d="M173.939726,248.986301 C164.821918,248.986301 157.106849,246.180822 150.794521,239.868493 C135.364384,225.139726 138.871233,197.084932 158.509589,176.745205 C166.926027,167.627397 178.147945,161.315068 188.668493,159.210959 C201.293151,156.405479 213.216438,159.210959 221.632877,166.926027 C237.063014,181.654795 233.556164,209.709589 213.917808,230.049315 C205.50137,239.167123 194.279452,245.479452 183.758904,247.583562 C180.252055,248.986301 176.745205,248.986301 173.939726,248.986301 Z M198.487671,185.863014 C197.786301,185.863014 196.383562,185.863014 194.980822,186.564384 C189.369863,187.967123 183.758904,191.473973 178.849315,196.383562 C169.030137,206.20274 167.627397,217.424658 170.432877,220.230137 C171.835616,221.632877 174.641096,221.632877 177.446575,220.931507 C183.057534,219.528767 188.668493,216.021918 193.578082,211.112329 C193.578082,211.112329 193.578082,211.112329 193.578082,211.112329 C203.39726,201.293151 204.8,190.071233 201.994521,187.265753 C201.293151,186.564384 199.890411,185.863014 198.487671,185.863014 Z" id="Shape" fill="#000000"></path>
                <path d="M136.065753,248.986301 C133.260274,248.986301 129.753425,248.284932 126.246575,247.583562 C115.726027,245.479452 104.50411,238.465753 96.0876712,230.049315 C87.6712329,220.931507 81.3589041,209.709589 79.2547945,199.189041 C77.1506849,186.564384 79.9561644,174.641096 88.3726027,166.926027 C96.7890411,159.210959 108.712329,156.405479 121.336986,159.210959 C131.857534,161.315068 143.079452,168.328767 151.49589,176.745205 C151.49589,176.745205 151.49589,176.745205 151.49589,176.745205 C159.912329,185.863014 166.224658,197.084932 168.328767,207.605479 C170.432877,220.230137 167.627397,232.153425 159.210959,239.868493 C152.89863,246.180822 145.183562,248.986301 136.065753,248.986301 Z M111.517808,185.863014 C110.115068,185.863014 108.712329,185.863014 108.010959,186.564384 C106.608219,187.967123 106.608219,190.772603 107.309589,193.578082 C108.010959,199.189041 111.517808,204.8 116.427397,210.410959 C121.336986,215.320548 126.947945,218.827397 132.558904,220.230137 C136.065753,220.931507 138.871233,220.931507 139.572603,219.528767 C140.975342,218.126027 140.975342,215.320548 140.273973,212.515068 C139.572603,206.90411 136.065753,201.293151 131.156164,195.682192 C126.246575,190.772603 120.635616,187.265753 115.024658,185.863014 C113.621918,185.863014 112.219178,185.863014 111.517808,185.863014 Z" id="Shape" fill="#000000"></path>
                <path d="M155.00274,381.545205 C147.287671,381.545205 140.975342,375.232877 140.975342,367.517808 L140.975342,216.723288 C140.975342,209.008219 147.287671,202.69589 155.00274,202.69589 C162.717808,202.69589 169.030137,209.008219 169.030137,216.723288 L169.030137,367.517808 C169.030137,375.232877 162.717808,381.545205 155.00274,381.545205 Z" id="Shape" fill="#000000"></path>
                <path d="M208.306849,381.545205 C208.306849,381.545205 208.306849,381.545205 208.306849,381.545205 L101.69863,381.545205 C93.9835616,381.545205 87.6712329,375.232877 87.6712329,367.517808 C87.6712329,340.164384 60.3178082,298.783562 49.7972603,285.457534 C49.7972603,285.457534 49.0958904,284.756164 49.0958904,284.756164 C18.9369863,248.986301 0.701369863,201.293151 0.701369863,158.509589 C0.701369863,74.3452055 70.1369863,6.31232877 155.00274,6.31232877 C239.868493,6.31232877 309.30411,74.3452055 309.30411,158.509589 C309.30411,201.994521 291.068493,249.687671 259.506849,286.158904 C248.986301,300.186301 222.334247,341.567123 222.334247,368.219178 C222.334247,373.830137 218.827397,378.739726 213.917808,380.843836 C211.813699,380.843836 210.410959,381.545205 208.306849,381.545205 Z M114.323288,353.490411 L195.682192,353.490411 C202.69589,314.915068 233.556164,272.832877 237.764384,267.923288 C237.764384,267.923288 237.764384,267.221918 238.465753,267.221918 C265.117808,236.361644 281.249315,194.279452 281.249315,157.808219 C281.249315,89.0739726 224.438356,33.6657534 155.00274,33.6657534 C85.5671233,33.6657534 28.7561644,89.0739726 28.7561644,157.808219 C28.7561644,194.279452 45.5890411,236.361644 71.539726,267.221918 C72.2410959,267.923288 72.9424658,268.624658 72.9424658,269.326027 C80.6575342,279.145205 108.010959,317.720548 114.323288,353.490411 Z" id="Shape" fill="#000000"></path>
                <path d="M295.276712,157.808219 C295.276712,81.3589041 232.153425,19.6383562 155.00274,19.6383562 C77.8520548,19.6383562 14.7287671,81.3589041 14.7287671,157.808219 C14.7287671,198.487671 32.9643836,243.375342 61.0191781,276.339726 C61.0191781,276.339726 101.69863,328.942466 101.69863,367.517808 L207.605479,367.517808 L207.605479,366.816438 L208.306849,367.517808 C208.306849,329.643836 248.986301,276.339726 248.986301,276.339726 C277.041096,243.375342 295.276712,198.487671 295.276712,157.808219 Z" id="Shape" fill-opacity="0.400000006" fill="#060606"></path>
                <path d="M170.432877,504.986301 L138.871233,504.986301 C135.364384,504.986301 131.857534,503.583562 129.052055,500.778082 L112.920548,484.646575 L93.2821918,484.646575 C85.5671233,484.646575 79.2547945,478.334247 79.2547945,470.619178 L79.2547945,367.517808 C79.2547945,359.80274 85.5671233,353.490411 93.2821918,353.490411 L216.723288,353.490411 C224.438356,353.490411 230.750685,359.80274 230.750685,367.517808 L230.750685,470.619178 C230.750685,478.334247 224.438356,484.646575 216.723288,484.646575 L197.084932,484.646575 L180.953425,500.778082 C178.147945,503.583562 174.641096,504.986301 170.432877,504.986301 Z M145.183562,476.931507 L165.523288,476.931507 L181.654795,460.8 C184.460274,457.994521 187.967123,456.591781 191.473973,456.591781 L202.69589,456.591781 L202.69589,381.545205 L107.309589,381.545205 L107.309589,456.591781 L118.531507,456.591781 C122.038356,456.591781 125.545205,457.994521 128.350685,460.8 L145.183562,476.931507 Z" id="Shape" fill="#000000"></path>
            </g>
        </g>
    </g>
</svg>