<?xml version="1.0" encoding="UTF-8"?>
<svg width="512px" height="512px" viewBox="0 0 512 512" version="1.1" xmlns="http://www.w3.org/2000/svg" xmlns:xlink="http://www.w3.org/1999/xlink">
    <!-- Generator: Sketch 48.2 (47327) - http://www.bohemiancoding.com/sketch -->
    <title>caja</title>
    <desc>Created with Sketch.</desc>
    <defs></defs>
    <g id="Page-1" stroke="none" stroke-width="1" fill="none" fill-rule="evenodd">
        <g id="caja" fill="#000000" fill-rule="nonzero">
            <path d="M501.333333,0 L10.6666667,0 C4.8,0 0,4.8 0,10.6666667 L0,437.333333 C0,443.2 4.8,448 10.6666667,448 L64,448 L64,501.333333 C64,507.2 68.8,512 74.6666667,512 L160,512 C165.866667,512 170.666667,507.2 170.666667,501.333333 L170.666667,448 L341.333333,448 L341.333333,501.333333 C341.333333,507.2 346.133333,512 352,512 L437.333333,512 C443.2,512 448,507.2 448,501.333333 L448,448 L501.333333,448 C507.2,448 512,443.2 512,437.333333 L512,10.6666667 C512,4.8 507.2,0 501.333333,0 Z M149.333333,490.666667 L85.3333333,490.666667 L85.3333333,448 L149.333333,448 L149.333333,490.666667 Z M426.666667,490.666667 L362.666667,490.666667 L362.666667,448 L426.666667,448 L426.666667,490.666667 Z M490.666667,426.666667 L437.333333,426.666667 L352,426.666667 L160,426.666667 L74.6666667,426.666667 L21.3333333,426.666667 L21.3333333,21.3333333 L490.666667,21.3333333 L490.666667,426.666667 Z M53.3333333,341.333333 L85.3333333,341.333333 L85.3333333,373.333333 C85.3333333,379.2 90.1333333,384 96,384 L437.333333,384 C443.2,384 448,379.2 448,373.333333 L448,74.6666667 C448,68.8 443.2,64 437.333333,64 L96,64 C90.1333333,64 85.3333333,68.8 85.3333333,74.6666667 L85.3333333,128 L53.3333333,128 C47.4666667,128 42.6666667,132.8 42.6666667,138.666667 L42.6666667,181.333333 C42.6666667,187.2 47.4666667,192 53.3333333,192 L85.3333333,192 L85.3333333,277.333333 L53.3333333,277.333333 C47.4666667,277.333333 42.6666667,282.133333 42.6666667,288 L42.6666667,330.666667 C42.6666667,336.533333 47.4666667,341.333333 53.3333333,341.333333 Z M106.666667,330.666667 L106.666667,288 L106.666667,181.333333 L106.666667,138.666667 L106.666667,85.3333333 L426.666667,85.3333333 L426.666667,362.666667 L106.666667,362.666667 L106.666667,330.666667 Z M64,170.666667 L64,149.333333 L85.3333333,149.333333 L85.3333333,170.666667 L64,170.666667 Z M64,298.666667 L85.3333333,298.666667 L85.3333333,320 L64,320 L64,298.666667 Z M266.666667,128 C213.866667,128 170.666667,171.2 170.666667,224 C170.666667,276.8 213.866667,320 266.666667,320 C319.466667,320 362.666667,276.8 362.666667,224 C362.666667,171.2 319.466667,128 266.666667,128 Z M266.666667,299.2 C225.6,299.2 192,265.6 192,224.533333 C192,183.466667 225.6,149.866667 266.666667,149.866667 C307.733333,149.866667 341.333333,183.466667 341.333333,224.533333 C341.333333,265.6 307.733333,299.2 266.666667,299.2 Z M298.666667,177.066667 L284.266667,191.466667 C278.933333,188.8 273.066667,187.2 266.666667,187.2 C246.4,187.2 229.333333,203.733333 229.333333,224.533333 C229.333333,245.333333 245.866667,261.866667 266.666667,261.866667 C286.933333,261.866667 304,245.333333 304,224.533333 C304,218.133333 302.4,212.266667 299.733333,206.933333 L314.133333,192.533333 C318.4,188.266667 318.4,181.866667 314.133333,177.6 C309.866667,173.333333 302.933333,173.333333 298.666667,177.066667 Z M266.666667,240 C258.133333,240 250.666667,233.066667 250.666667,224 C250.666667,214.933333 257.6,208 266.666667,208 C270.933333,208 275.2,209.6 277.866667,212.8 C280.533333,215.466667 282.666667,219.733333 282.666667,224 C282.666667,233.066667 275.2,240 266.666667,240 Z" id="Combined-Shape"></path>
        </g>
    </g>
</svg>