<?xml version="1.0" encoding="UTF-8"?>
<svg width="512px" height="512px" viewBox="0 0 512 512" version="1.1" xmlns="http://www.w3.org/2000/svg" xmlns:xlink="http://www.w3.org/1999/xlink">
    <!-- Generator: Sketch 48.2 (47327) - http://www.bohemiancoding.com/sketch -->
    <title>close</title>
    <desc>Created with Sketch.</desc>
    <defs></defs>
    <g id="Page-1" stroke="none" stroke-width="1" fill="none" fill-rule="evenodd">
        <g id="close" fill="#141414" fill-rule="nonzero">
            <path d="M256,0 C397.902622,0 512,115.05618 512,256 C512,396.94382 396.94382,512 256,512 C115.05618,512 0,396.94382 0,256 C0,115.05618 115.05618,0 256,0 Z M338.456929,145.737828 L366.262172,173.543071 L282.846442,256 L366.262172,338.456929 L338.456929,366.262172 L256,282.846442 L173.543071,366.262172 L146.696629,338.456929 L229.153558,256 L146.696629,173.543071 L173.543071,145.737828 L256,229.153558 L338.456929,145.737828 Z M256,473.64794 C376.808989,473.64794 474.606742,375.850187 473.64794,256 C473.64794,136.149813 375.850187,38.3520599 256,38.3520599 C136.149813,38.3520599 38.3520599,136.149813 38.3520599,256 C38.3520599,375.850187 136.149813,473.64794 256,473.64794 Z" id="Combined-Shape"></path>
        </g>
    </g>
</svg>