<?xml version="1.0" encoding="UTF-8"?>
<svg width="512px" height="512px" viewBox="0 0 512 512" version="1.1" xmlns="http://www.w3.org/2000/svg" xmlns:xlink="http://www.w3.org/1999/xlink">
    <!-- Generator: Sketch 48.2 (47327) - http://www.bohemiancoding.com/sketch -->
    <title>doc</title>
    <desc>Created with Sketch.</desc>
    <defs></defs>
    <g id="Page-1" stroke="none" stroke-width="1" fill="none" fill-rule="evenodd">
        <g id="doc" fill="#000000" fill-rule="nonzero">
            <path d="M458.333333,84.8 C458.333333,83.7333333 458.333333,82.6666667 457.8,82.1333333 C456.733333,76.8 454.6,72 450.333333,68.2666667 L387.933333,7.46666667 C382.6,2.13333333 378.866667,0 371.933333,0 C371.933333,0 371.933333,0 371.933333,0 C371.933333,0 371.933333,0 371.933333,0 C371.933333,0 371.933333,0 371.933333,0 L141.533333,0 C127.666667,0 115.933333,11.7333333 115.933333,25.6 L115.933333,424 C115.933333,437.866667 127.133333,449.6 141.533333,449.6 L432.2,449.6 C446.066667,449.6 457.8,437.866667 457.8,424 L457.8,86.4 C457.8,86.4 457.8,85.8666667 457.8,85.8666667 C458.333333,84.8 458.333333,84.8 458.333333,84.8 Z M426.866667,74.1333333 L383.133333,74.1333333 L383.133333,31.4666667 L426.866667,74.1333333 Z M432.733333,427.733333 L142.066667,427.733333 C139.933333,427.733333 137.8,425.6 137.8,423.466667 L137.8,25.0666667 C137.8,22.9333333 139.933333,20.8 142.066667,20.8 L361.8,20.8 L361.8,84.8 C361.8,90.6666667 366.6,95.4666667 372.466667,95.4666667 L437,95.4666667 L437,423.466667 C437,425.6 435.4,427.733333 432.733333,427.733333 Z M373,340.8 L202.333333,340.8 C196.466667,340.8 191.666667,345.6 191.666667,351.466667 C191.666667,357.333333 196.466667,362.133333 202.333333,362.133333 L373,362.133333 C378.866667,362.133333 383.666667,357.333333 383.666667,351.466667 C383.666667,345.6 378.866667,340.8 373,340.8 Z M373,276.8 L202.333333,276.8 C196.466667,276.8 191.666667,281.6 191.666667,287.466667 C191.666667,293.333333 196.466667,298.133333 202.333333,298.133333 L373,298.133333 C378.866667,298.133333 383.666667,293.333333 383.666667,287.466667 C383.666667,281.6 378.866667,276.8 373,276.8 Z M373,212.8 L202.333333,212.8 C196.466667,212.8 191.666667,217.6 191.666667,223.466667 C191.666667,229.333333 196.466667,234.133333 202.333333,234.133333 L373,234.133333 C378.866667,234.133333 383.666667,229.333333 383.666667,223.466667 C383.666667,217.6 378.866667,212.8 373,212.8 Z M202.333333,170.133333 L309,170.133333 C314.866667,170.133333 319.666667,165.333333 319.666667,159.466667 C319.666667,153.6 314.866667,148.8 309,148.8 L202.333333,148.8 C196.466667,148.8 191.666667,153.6 191.666667,159.466667 C191.666667,165.333333 196.466667,170.133333 202.333333,170.133333 Z M406.066667,475.2 C411.933333,475.2 416.733333,480 416.733333,485.866667 C416.733333,500.266667 405,512 390.6,512 L79.1333333,512 C64.7333333,512 53,500.266667 53,485.866667 L53,89.0666667 C53,74.6666667 64.7333333,62.9333333 79.1333333,62.9333333 C85,62.9333333 89.8,67.7333333 89.8,73.6 C89.8,79.4666667 85,84.2666667 79.1333333,84.2666667 C76.4666667,84.2666667 74.3333333,86.4 74.3333333,89.0666667 L74.3333333,485.866667 C74.3333333,488.533333 76.4666667,490.666667 79.1333333,490.666667 L390.6,490.666667 C393.266667,490.666667 395.4,488.533333 395.4,485.866667 C395.4,480 400.2,475.2 406.066667,475.2 Z" id="Combined-Shape"></path>
        </g>
    </g>
</svg>