<?xml version="1.0" encoding="UTF-8"?>
<svg width="512px" height="512px" viewBox="0 0 512 512" version="1.1" xmlns="http://www.w3.org/2000/svg" xmlns:xlink="http://www.w3.org/1999/xlink">
    <!-- Generator: Sketch 48.2 (47327) - http://www.bohemiancoding.com/sketch -->
    <title>facebook</title>
    <desc>Created with Sketch.</desc>
    <defs></defs>
    <g id="Page-1" stroke="none" stroke-width="1" fill="none" fill-rule="evenodd">
        <g id="facebook" fill="#000000" fill-rule="nonzero">
            <path d="M256,0 C114.812121,0 0,114.812121 0,256 C0,397.187879 114.812121,512 256,512 C397.187879,512 512,397.187879 512,256 C512,114.812121 397.187879,0 256,0 Z M256,496.484848 C124.121212,496.484848 15.5151515,387.878788 15.5151515,256 C15.5151515,124.121212 124.121212,15.5151515 256,15.5151515 C387.878788,15.5151515 496.484848,124.121212 496.484848,256 C496.484848,387.878788 387.878788,496.484848 256,496.484848 Z M235.830303,200.145455 L235.830303,218.763636 L203.248485,218.763636 L203.248485,251.345455 L235.830303,251.345455 L235.830303,347.539394 L271.515152,347.539394 L271.515152,251.345455 L308.751515,251.345455 L308.751515,218.763636 L271.515152,218.763636 L271.515152,197.042424 C271.515152,190.836364 276.169697,186.181818 279.272727,186.181818 L308.751515,186.181818 L308.751515,152.048485 L279.272727,152.048485 C252.89697,152.048485 235.830303,173.769697 235.830303,200.145455 Z" id="Combined-Shape"></path>
        </g>
    </g>
</svg>