<?xml version="1.0" encoding="UTF-8"?>
<svg width="512px" height="512px" viewBox="0 0 512 512" version="1.1" xmlns="http://www.w3.org/2000/svg" xmlns:xlink="http://www.w3.org/1999/xlink">
    <!-- Generator: Sketch 48.2 (47327) - http://www.bohemiancoding.com/sketch -->
    <title>geo</title>
    <desc>Created with Sketch.</desc>
    <defs></defs>
    <g id="Page-1" stroke="none" stroke-width="1" fill="none" fill-rule="evenodd">
        <g id="geo" fill="#000000" fill-rule="nonzero">
            <path d="M255.905263,450.021053 C261.294737,450.021053 263.989474,447.326316 266.684211,444.631579 C272.073684,436.547368 406.810526,229.052632 406.810526,150.905263 C406.810526,67.3684211 339.442105,0 255.905263,0 C172.368421,0 105,67.3684211 105,150.905263 C105,231.747368 239.736842,436.547368 245.126316,444.631579 C247.821053,447.326316 250.515789,450.021053 255.905263,450.021053 Z M255.905263,24.2526316 C325.968421,24.2526316 379.863158,80.8421053 379.863158,148.210526 C379.863158,202.105263 299.021053,342.231579 255.905263,409.6 C212.789474,342.231579 131.947368,202.105263 131.947368,148.210526 C131.947368,80.8421053 185.842105,24.2526316 255.905263,24.2526316 Z M312.494737,134.736842 C312.494737,105.094737 288.242105,78.1473684 255.905263,78.1473684 C223.568421,78.1473684 199.315789,102.4 199.315789,134.736842 C199.315789,164.378947 223.568421,191.326316 255.905263,191.326316 C288.242105,191.326316 312.494737,167.073684 312.494737,134.736842 Z M226.263158,134.736842 C226.263158,118.568421 239.736842,105.094737 255.905263,105.094737 C272.073684,105.094737 285.547368,118.568421 285.547368,134.736842 C285.547368,150.905263 272.073684,164.378947 255.905263,164.378947 C239.736842,164.378947 226.263158,150.905263 226.263158,134.736842 Z M323.273684,398.821053 C371.778947,406.905263 398.726316,428.463158 401.421053,452.715789 C401.421053,490.442105 328.663158,512 258.6,512 C188.536842,512 115.778947,490.442105 115.778947,452.715789 C115.778947,428.463158 145.421053,409.6 193.926316,398.821053 C202.010526,398.821053 210.094737,401.515789 210.094737,409.6 C210.094737,417.684211 207.4,423.073684 199.315789,425.768421 C156.2,433.852632 142.726316,447.326316 142.726316,452.715789 C142.726316,463.494737 180.452632,485.052632 258.6,485.052632 C334.052632,485.052632 374.473684,463.494737 374.473684,452.715789 C374.473684,447.326316 358.305263,433.852632 317.884211,425.768421 C309.8,423.073684 304.410526,417.684211 307.105263,409.6 C309.8,401.515789 315.189474,396.126316 323.273684,398.821053 Z" id="Combined-Shape"></path>
        </g>
    </g>
</svg>