<?xml version="1.0" encoding="UTF-8"?>
<svg width="512px" height="512px" viewBox="0 0 512 512" version="1.1" xmlns="http://www.w3.org/2000/svg" xmlns:xlink="http://www.w3.org/1999/xlink">
    <!-- Generator: Sketch 48.2 (47327) - http://www.bohemiancoding.com/sketch -->
    <title>hammer</title>
    <desc>Created with Sketch.</desc>
    <defs></defs>
    <g id="Page-1" stroke="none" stroke-width="1" fill="none" fill-rule="evenodd">
        <g id="hammer" fill="#000000" fill-rule="nonzero">
            <path d="M502.55891,219.631826 L499.299069,216.371985 C490.606158,207.679074 478.653405,204.962539 467.787267,208.222381 L303.708574,44.1436881 C306.968415,33.2775495 304.251881,20.7814901 295.55897,12.6318861 L292.299128,9.37204454 C279.803069,-3.12401485 259.157406,-3.12401485 246.661346,9.37204454 L128.220435,127.812955 C115.724376,140.309015 115.724376,160.954678 128.220435,173.450737 L131.480277,176.710579 C140.173188,185.40349 152.12594,188.120024 162.992079,184.860183 L327.614079,348.938876 C324.354237,359.805014 327.070772,372.301074 335.763683,380.450678 L339.023524,383.710519 C351.519584,396.206579 372.165247,396.206579 384.661306,383.710519 L503.102217,265.269608 C515.054969,252.230242 515.054969,232.127886 502.55891,219.631826 Z M146.692871,160.411371 L143.433029,157.151529 C139.086574,152.805074 139.086574,146.285391 143.433029,142.482242 L261.87394,24.0413316 C266.220396,19.6948762 272.740079,19.6948762 276.543227,24.0413316 L279.803069,27.3011732 C283.06291,30.5610148 283.606217,35.4507772 281.43299,39.7972326 L159.18893,162.041292 C154.842475,164.21452 149.952713,163.671213 146.692871,160.411371 Z M180.921208,171.27751 L290.669207,61.5295098 L449.858138,220.71844 L340.110138,330.46644 L180.921208,171.27751 Z M487.346316,249.513708 L368.905405,367.954618 C364.55895,372.301074 358.039267,372.301074 354.236118,367.954618 L350.976277,364.694777 C347.716435,361.434935 347.173128,356.545173 349.346356,352.198717 L471.590415,229.954658 C475.393564,227.78143 480.826633,228.324737 484.086474,231.584579 C486.259702,233.757807 487.346316,234.84442 487.346316,234.84442 C491.692772,239.190876 491.692772,245.710559 487.346316,249.513708 Z M215.692851,279.938896 C220.039307,275.59244 227.102297,275.59244 230.905445,279.938896 C235.251901,284.285351 235.251901,290.805034 230.905445,295.15149 L18.4724356,507.584499 C14.1259802,511.930955 7.60629702,511.930955 3.25984158,507.584499 C-1.08661386,503.238044 -1.08661386,496.718361 3.25984158,492.371905 L215.692851,279.938896 Z" id="Combined-Shape"></path>
        </g>
    </g>
</svg>