<?xml version="1.0" encoding="UTF-8"?>
<svg width="512px" height="512px" viewBox="0 0 512 512" version="1.1" xmlns="http://www.w3.org/2000/svg" xmlns:xlink="http://www.w3.org/1999/xlink">
    <!-- Generator: Sketch 48.2 (47327) - http://www.bohemiancoding.com/sketch -->
    <title>hands</title>
    <desc>Created with Sketch.</desc>
    <defs></defs>
    <g id="Page-1" stroke="none" stroke-width="1" fill="none" fill-rule="evenodd">
        <g id="hands" fill="#000000" fill-rule="nonzero">
            <path d="M511.58296,396.150638 L465.838546,234.161597 C464.224038,228.241732 458.304172,225.012714 452.384307,226.627223 L374.349719,248.692175 C371.658871,249.230345 369.506193,251.383023 367.891684,253.535702 C367.353515,254.612041 366.815345,256.226549 366.815345,257.841058 L352.284767,262.146415 C285.55174,228.241732 253.799735,233.085258 247.87987,234.699767 C235.50197,236.852445 224.200409,240.619632 214.513356,246.001328 C178.994164,247.077667 156.929212,248.692175 144.013142,250.844854 C142.936803,247.615836 140.245955,245.463158 137.016938,244.386819 L58.9823498,222.321866 C56.2915019,221.783697 53.0624845,221.783697 50.9098062,223.398206 C48.2189584,225.012714 46.6044496,227.165393 46.0662801,229.85624 L0.321866419,391.845282 C-0.216303153,394.53613 -0.216303153,397.765147 1.39820556,399.917825 C3.01271428,402.070504 5.16539257,404.223182 7.85624043,404.761351 L85.8908284,426.826304 C86.9671676,427.364473 88.0435067,427.364473 88.5816763,427.364473 C93.4252024,427.364473 97.730559,424.135456 98.8068982,419.29193 L104.726763,399.379656 C136.478768,440.818713 206.440813,495.17384 215.051526,502.170044 C223.124069,509.166248 231.734783,511.857096 239.269157,511.857096 C248.418039,511.857096 256.490583,507.55174 261.872279,501.093705 C264.024957,498.402857 266.177635,495.17384 267.253974,491.406653 L271.559331,495.17384 C279.093705,501.093705 287.166248,504.322722 295.238792,504.322722 C298.467809,504.322722 302.234997,503.784553 305.464014,502.708214 C315.151066,498.941027 323.22361,490.330313 325.914458,480.105092 C338.830527,483.334109 351.208428,477.952413 359.280971,468.265361 C364.124497,462.345496 367.353515,454.811122 367.891684,447.276748 C370.582532,447.276748 372.73521,446.200409 375.426058,445.662239 C386.727619,441.356882 395.338333,431.66983 398.02918,419.830099 C402.334537,419.830099 407.178063,419.29193 412.021589,417.677421 L413.636098,423.597286 C414.174268,426.288134 416.326946,428.440813 418.479624,430.055321 C420.094133,431.13166 421.708642,431.66983 423.86132,431.66983 C424.937659,431.66983 426.013998,431.66983 426.552168,431.13166 L504.586756,409.066708 C509.968451,407.452199 513.197469,401.532334 511.58296,396.150638 Z M80.5091327,403.685012 L22.9249885,387.539925 L62.7495368,246.539497 L120.333681,262.684584 C120.333681,262.684584 120.333681,262.684584 120.333681,262.684584 L90.196185,369.780329 C90.196185,369.780329 90.196185,369.780329 90.196185,369.780329 L80.5091327,403.685012 Z M366.815345,426.288134 C363.048158,427.364473 359.819141,426.826304 356.590123,424.135456 L354.975615,422.520947 C354.975615,422.520947 354.975615,422.520947 354.975615,422.520947 C354.975615,422.520947 354.975615,422.520947 354.975615,422.520947 C354.975615,422.520947 354.975615,422.520947 354.975615,422.520947 L308.693031,383.772738 C304.387675,380.005551 297.39147,380.543721 293.624283,384.849077 C289.857096,389.154434 290.395266,396.150638 294.700622,399.917825 L340.983206,438.666034 C340.983206,438.666034 340.983206,438.666034 340.983206,438.666034 C340.983206,438.666034 340.983206,438.666034 340.983206,438.666034 C349.055749,445.662239 343.135884,453.734783 341.521375,455.349291 C340.445036,456.9638 333.448832,463.960004 325.376288,457.50197 L314.612897,448.353087 C314.074727,447.276748 313.536558,446.738578 312.460218,446.200409 L274.788348,415.524743 C269.944822,411.757556 263.486787,412.295725 259.7196,417.139252 C255.952413,421.982778 256.490583,428.440813 261.334109,432.208 L298.467809,462.345496 C299.005979,462.883665 299.544149,463.960004 300.620488,464.498174 C304.925844,468.265361 304.925844,472.032548 304.387675,474.723396 C303.849505,478.490583 300.620488,482.25777 297.39147,483.334109 C292.547944,484.948618 288.242588,482.25777 285.01357,479.566922 L240.345496,440.818713 C240.345496,440.818713 239.807326,440.280543 239.807326,440.280543 C239.269157,440.280543 239.269157,439.742374 238.730987,439.742374 C238.192817,439.742374 238.192817,439.204204 237.654648,439.204204 C237.116478,439.204204 237.116478,438.666034 236.578309,438.666034 C236.040139,438.666034 236.040139,438.666034 235.50197,438.666034 C234.9638,438.666034 234.9638,438.666034 234.42563,438.666034 C233.887461,438.666034 233.887461,438.666034 233.349291,438.666034 C232.811122,438.666034 232.811122,438.666034 232.272952,438.666034 C231.734783,438.666034 231.734783,438.666034 231.196613,438.666034 C230.658443,438.666034 230.658443,438.666034 230.120274,438.666034 C229.582104,438.666034 229.582104,438.666034 229.043935,439.204204 C228.505765,439.204204 228.505765,439.204204 227.967596,439.742374 C227.429426,439.742374 227.429426,440.280543 226.891256,440.280543 C226.353087,440.280543 226.353087,440.818713 225.814917,440.818713 C225.276748,440.818713 225.276748,441.356882 224.738578,441.356882 C224.738578,441.356882 224.200409,441.895052 224.200409,441.895052 C224.200409,441.895052 224.200409,441.895052 224.200409,441.895052 C224.200409,441.895052 224.200409,441.895052 224.200409,441.895052 C224.200409,441.895052 223.662239,442.433222 223.662239,442.433222 C223.662239,442.971391 223.124069,442.971391 223.124069,443.509561 C223.124069,444.04773 222.5859,444.04773 222.5859,444.5859 C222.5859,445.124069 222.04773,445.124069 222.04773,445.662239 C222.04773,446.200409 222.04773,446.200409 221.509561,446.738578 C221.509561,447.276748 221.509561,447.276748 221.509561,447.814917 C221.509561,448.353087 221.509561,448.353087 221.509561,448.891256 C221.509561,449.429426 221.509561,449.429426 221.509561,449.967596 C221.509561,450.505765 221.509561,450.505765 221.509561,451.043935 C221.509561,451.582104 221.509561,451.582104 221.509561,452.120274 C221.509561,452.658443 221.509561,452.658443 222.04773,453.196613 C222.04773,453.734783 222.04773,453.734783 222.5859,454.272952 C222.5859,454.811122 223.124069,454.811122 223.124069,455.349291 C223.124069,455.887461 223.662239,455.887461 223.662239,456.42563 C223.662239,456.9638 224.200409,456.9638 224.200409,457.50197 C224.200409,457.50197 224.738578,458.040139 224.738578,458.040139 L240.883665,474.185226 C240.883665,474.185226 241.421835,474.723396 241.421835,474.723396 C247.3417,479.566922 246.803531,486.024957 243.574513,489.792144 C239.807326,494.0975 233.887461,493.559331 226.891256,487.639466 C198.368269,465.574513 124.639038,404.223182 110.646629,374.085686 L138.631447,275.600654 C143.474973,274.524315 156.391042,272.371637 185.990369,270.757128 C175.765147,282.596859 169.307112,296.051098 166.078095,309.505337 C161.234569,329.417611 165.539925,346.639038 177.379656,355.78792 C183.837691,360.631447 191.910234,362.245955 199.982778,360.631447 C218.818713,357.402429 236.578309,336.413816 244.112683,326.188594 C251.647057,325.650424 259.7196,323.497746 266.177635,321.345068 L371.658871,407.452199 C373.27338,409.066708 374.349719,410.143047 374.887889,411.757556 C374.887889,412.833895 375.426058,413.910234 375.426058,414.448404 C375.426058,415.524743 375.426058,416.062912 375.426058,417.139252 C375.426058,419.830099 371.658871,424.673626 366.815345,426.288134 Z M394.261993,398.841486 C392.109315,395.074299 389.418467,391.845282 386.18945,388.616264 L275.864687,298.741946 C272.63567,296.051098 268.868483,295.512928 265.101296,297.127437 C255.952413,300.356454 245.189022,303.047302 242.498174,302.509133 C238.192817,301.432794 233.349291,303.047302 230.658443,306.814489 C224.738578,315.963372 209.13166,334.799307 197.29193,336.951985 C194.601082,337.490155 192.986573,336.951985 190.833895,335.875646 C186.528538,332.646629 185.452199,322.959576 187.604878,312.196185 C193.524743,287.978554 215.051526,261.608245 251.108887,255.68838 C251.647057,255.68838 252.185226,255.68838 252.185226,255.15021 C252.185226,255.15021 280.170044,249.230345 345.826732,283.135028 C348.51758,284.211367 351.208428,284.749537 353.899275,283.673198 L371.658871,278.291502 L405.025385,396.688808 C401.796367,398.841486 397.491011,399.379656 394.261993,398.841486 Z M430.857524,407.990369 L391.032976,266.989941 L448.61712,250.844854 L488.441669,391.845282 L430.857524,407.990369 Z" id="Shape"></path>
        </g>
    </g>
</svg>