<?xml version="1.0" encoding="UTF-8"?>
<svg width="512px" height="512px" viewBox="0 0 512 512" version="1.1" xmlns="http://www.w3.org/2000/svg" xmlns:xlink="http://www.w3.org/1999/xlink">
    <!-- Generator: Sketch 48.2 (47327) - http://www.bohemiancoding.com/sketch -->
    <title>house</title>
    <desc>Created with Sketch.</desc>
    <defs></defs>
    <g id="Page-1" stroke="none" stroke-width="1" fill="none" fill-rule="evenodd">
        <g id="house" fill="#000000" fill-rule="nonzero">
            <path d="M504.848956,245.346246 C510.733166,247.485959 513.407807,253.905097 511.268094,258.71945 C509.128381,264.60366 502.709243,267.278301 497.359962,265.138588 L470.078625,254.974953 L470.078625,501.576836 C470.078625,507.461046 465.264272,512.2754 459.380062,512.2754 L330.997303,512.2754 L288.203049,512.2754 L224.01167,512.2754 L181.217417,512.2754 L95.6289104,512.2754 L52.8346573,512.2754 C46.9504475,512.2754 42.136094,507.461046 42.136094,501.576836 L42.136094,334.679249 L13.2499731,342.168244 C7.9006915,343.773028 2.01648169,340.563459 0.4116972,334.679249 C-1.19308729,329.329968 2.01648169,323.445758 7.9006915,321.840973 L213.313106,268.883085 L213.313106,159.75774 L184.426986,149.059176 C178.542776,146.919464 175.868135,140.500326 178.007848,135.151044 C180.14756,129.266834 186.566698,126.592193 191.91598,128.731906 L227.756167,142.10511 L283.923624,162.967309 L504.848956,245.346246 Z M122.910247,383.89264 C117.026037,383.89264 112.211683,379.078287 112.211683,373.194077 C112.211683,367.309867 117.026037,362.495514 122.910247,362.495514 L150.726511,362.495514 C156.610721,362.495514 161.425075,367.309867 161.425075,373.194077 C161.425075,379.078287 156.610721,383.89264 150.726511,383.89264 L122.910247,383.89264 Z M64.0681487,329.329968 L64.0681487,490.878273 L85.4652753,490.878273 L85.4652753,415.98833 C85.4652753,410.10412 90.2796288,405.289767 96.1638386,405.289767 L181.752345,405.289767 C187.636555,405.289767 192.450908,410.10412 192.450908,415.98833 L192.450908,490.878273 L213.848035,490.878273 L213.848035,290.81514 L64.0681487,329.329968 Z M106.862402,490.878273 L171.053782,490.878273 L171.053782,426.686894 L106.862402,426.686894 L106.862402,490.878273 Z M299.436541,490.878273 L320.833667,490.878273 L320.833667,426.686894 L299.436541,426.686894 L299.436541,490.878273 Z M288.737978,362.495514 C282.853768,362.495514 278.039414,357.68116 278.039414,351.796951 C278.039414,345.912741 282.853768,341.098387 288.737978,341.098387 L316.554242,341.098387 C322.438452,341.098387 327.252805,345.912741 327.252805,351.796951 C327.252805,357.68116 322.438452,362.495514 316.554242,362.495514 L288.737978,362.495514 Z M288.737978,298.304134 C282.853768,298.304134 278.039414,293.489781 278.039414,287.605571 C278.039414,281.721361 282.853768,276.907008 288.737978,276.907008 L316.554242,276.907008 C322.438452,276.907008 327.252805,281.721361 327.252805,287.605571 C327.252805,293.489781 322.438452,298.304134 316.554242,298.304134 L288.737978,298.304134 Z M374.326484,362.495514 C368.442274,362.495514 363.627921,357.68116 363.627921,351.796951 C363.627921,345.912741 368.442274,341.098387 374.326484,341.098387 L401.072892,341.098387 C406.957102,341.098387 411.771455,345.912741 411.771455,351.796951 C411.771455,357.68116 406.957102,362.495514 401.072892,362.495514 L374.326484,362.495514 Z M374.326484,426.686894 C368.442274,426.686894 363.627921,421.87254 363.627921,415.98833 C363.627921,410.10412 368.442274,405.289767 374.326484,405.289767 L401.072892,405.289767 C406.957102,405.289767 411.771455,410.10412 411.771455,415.98833 C411.771455,421.87254 406.957102,426.686894 401.072892,426.686894 L374.326484,426.686894 Z M374.326484,298.304134 C368.442274,298.304134 363.627921,293.489781 363.627921,287.605571 C363.627921,281.721361 368.442274,276.907008 374.326484,276.907008 L401.072892,276.907008 C406.957102,276.907008 411.771455,281.721361 411.771455,287.605571 C411.771455,293.489781 406.957102,298.304134 401.072892,298.304134 L374.326484,298.304134 Z M449.216427,247.485959 L354.534142,212.1807 L235.245161,167.781662 L235.245161,276.907008 L235.245161,490.878273 L278.039414,490.878273 L278.039414,415.98833 C278.039414,410.10412 282.853768,405.289767 288.737978,405.289767 L331.532231,405.289767 C337.416441,405.289767 342.230794,410.10412 342.230794,415.98833 L342.230794,490.878273 L449.216427,490.878273 L449.216427,247.485959 Z" id="Combined-Shape"></path>
        </g>
    </g>
</svg>