<?xml version="1.0" encoding="UTF-8"?>
<svg width="512px" height="512px" viewBox="0 0 512 512" version="1.1" xmlns="http://www.w3.org/2000/svg" xmlns:xlink="http://www.w3.org/1999/xlink">
    <!-- Generator: Sketch 48.2 (47327) - http://www.bohemiancoding.com/sketch -->
    <title>mail</title>
    <desc>Created with Sketch.</desc>
    <defs></defs>
    <g id="Page-1" stroke="none" stroke-width="1" fill="none" fill-rule="evenodd">
        <g id="mail" fill="#000000" fill-rule="nonzero">
            <path d="M449.361702,123 C482.042553,123 512,150.234043 512,185.638298 L512,449.808511 C512,485.212766 484.765957,512.446809 449.361702,512.446809 L62.6382979,512.446809 C27.2340426,512.446809 0,485.212766 0,449.808511 L0,185.638298 C0,150.234043 27.2340426,123 62.6382979,123 L449.361702,123 Z M433.021277,177.468085 C438.468085,172.021277 446.638298,172.021277 452.085106,177.468085 C457.531915,182.914894 457.531915,191.085106 452.085106,196.531915 L283.234043,346.319149 C272.340426,354.489362 264.170213,357.212766 250.553191,357.212766 C236.93617,357.212766 226.042553,354.489362 217.87234,346.319149 L49.0212766,196.531915 C43.5744681,191.085106 43.5744681,182.914894 49.0212766,177.468085 C54.4680851,172.021277 62.6382979,172.021277 68.0851064,177.468085 L236.93617,327.255319 C245.106383,332.702128 256,332.702128 264.170213,327.255319 L433.021277,177.468085 Z M337.702128,343.595745 L449.361702,436.191489 C454.808511,441.638298 457.531915,449.808511 452.085106,455.255319 C449.361702,457.978723 443.914894,460.702128 441.191489,460.702128 C438.468085,460.702128 435.744681,460.702128 433.021277,457.978723 L321.361702,365.382979 C315.914894,359.93617 313.191489,351.765957 318.638298,346.319149 C324.085106,340.87234 332.255319,338.148936 337.702128,343.595745 Z M166.12766,343.595745 C171.574468,338.148936 179.744681,338.148936 185.191489,346.319149 C187.914894,351.765957 187.914894,359.93617 182.468085,365.382979 L70.8085106,457.978723 C68.0851064,460.702128 65.3617021,460.702128 62.6382979,460.702128 C57.1914894,460.702128 54.4680851,457.978723 51.7446809,455.255319 C49.0212766,449.808511 49.0212766,441.638298 54.4680851,436.191489 L166.12766,343.595745 Z M484.765957,447.085106 L484.765957,182.914894 C484.765957,163.851064 468.425532,147.510638 449.361702,147.510638 L62.6382979,147.510638 C43.5744681,147.510638 27.2340426,163.851064 27.2340426,182.914894 L27.2340426,447.085106 C27.2340426,466.148936 43.5744681,482.489362 62.6382979,482.489362 L449.361702,482.489362 C468.425532,482.489362 484.765957,466.148936 484.765957,447.085106 Z" id="Combined-Shape"></path>
        </g>
    </g>
</svg>