<?xml version="1.0" encoding="UTF-8"?>
<svg width="512px" height="512px" viewBox="0 0 512 512" version="1.1" xmlns="http://www.w3.org/2000/svg" xmlns:xlink="http://www.w3.org/1999/xlink">
    <!-- Generator: Sketch 48.2 (47327) - http://www.bohemiancoding.com/sketch -->
    <title>tel</title>
    <desc>Created with Sketch.</desc>
    <defs></defs>
    <g id="Page-1" stroke="none" stroke-width="1" fill="none" fill-rule="evenodd">
        <g id="tel" fill="#000000" fill-rule="nonzero">
            <path d="M344.225989,306.621469 C335.548023,297.943503 318.19209,297.943503 309.514124,306.621469 C309.514124,306.621469 286.372881,329.762712 280.587571,335.548023 C274.80226,335.548023 257.446328,326.870056 231.412429,303.728814 C199.59322,274.80226 176.451977,240.090395 176.451977,231.412429 L205.378531,202.485876 C211.163842,196.700565 214.056497,190.915254 214.056497,185.129944 C214.056497,179.344633 211.163842,173.559322 208.271186,167.774011 L104.135593,60.7457627 C98.3502825,54.960452 92.5649718,52.0677966 86.779661,52.0677966 C78.1016949,52.0677966 75.2090395,54.960452 69.4237288,57.8531073 L57.8531073,66.5310734 C31.819209,89.6723164 2.89265537,118.59887 0,164.881356 C0,219.841808 40.4971751,286.372881 127.276836,376.045198 C214.056497,465.717514 283.480226,509.107345 338.440678,509.107345 C338.440678,509.107345 338.440678,509.107345 341.333333,509.107345 C390.508475,509.107345 419.435028,477.288136 445.468927,448.361582 L451.254237,442.576271 C459.932203,433.898305 459.932203,416.542373 451.254237,407.864407 L344.225989,306.621469 Z M422.327684,433.898305 C399.186441,459.932203 376.045198,485.966102 338.440678,485.966102 C292.158192,485.966102 228.519774,445.468927 147.525424,364.474576 C66.5310734,283.480226 28.9265537,219.841808 28.9265537,173.559322 C28.9265537,138.847458 52.0677966,118.59887 78.1016949,95.4576271 C80.9943503,92.5649718 83.8870056,89.6723164 86.779661,86.779661 L185.129944,188.022599 L156.20339,216.949153 C144.632768,231.412429 147.525424,254.553672 173.559322,286.372881 C190.915254,306.621469 257.446328,384.723164 295.050847,367.367232 C295.050847,367.367232 297.943503,364.474576 300.836158,364.474576 C303.728814,361.581921 321.084746,344.225989 329.762712,335.548023 L428.112994,433.898305 L422.327684,433.898305 Z M422.327684,254.553672 C416.542373,254.553672 407.864407,248.768362 407.864407,240.090395 C410.757062,202.485876 396.293785,167.774011 370.259887,141.740113 C344.225989,115.706215 309.514124,104.135593 271.909605,104.135593 C263.231638,104.135593 257.446328,98.3502825 257.446328,89.6723164 C257.446328,80.9943503 263.231638,75.2090395 271.909605,75.2090395 C318.19209,72.3163842 358.689266,89.6723164 390.508475,121.491525 C422.327684,153.310734 439.683616,193.80791 436.79096,240.090395 C436.79096,248.768362 431.00565,254.553672 422.327684,254.553672 C425.220339,254.553672 422.327684,254.553672 422.327684,254.553672 Z M442.576271,69.4237288 C488.858757,115.706215 512,176.451977 512,240.090395 C512,248.768362 506.214689,254.553672 497.536723,254.553672 C488.858757,254.553672 483.073446,248.768362 483.073446,240.090395 C483.073446,182.237288 462.824859,130.169492 422.327684,89.6723164 C381.830508,49.1751412 329.762712,28.9265537 271.909605,28.9265537 C263.231638,28.9265537 257.446328,23.1412429 257.446328,14.4632768 C257.446328,5.78531073 263.231638,0 271.909605,0 C335.548023,0 396.293785,23.1412429 442.576271,69.4237288 Z M271.909605,147.525424 C303.728814,144.632768 335.548023,156.20339 355.79661,176.451977 C378.937853,199.59322 390.508475,231.412429 387.615819,263.231638 C387.615819,271.909605 381.830508,277.694915 373.152542,277.694915 C364.474576,277.694915 358.689266,271.909605 358.689266,263.231638 C361.581921,240.090395 352.903955,216.949153 335.548023,199.59322 C318.19209,182.237288 295.050847,173.559322 271.909605,176.451977 C266.124294,176.451977 257.446328,170.666667 257.446328,161.988701 C257.446328,156.20339 263.231638,147.525424 271.909605,147.525424 Z" id="Combined-Shape"></path>
        </g>
    </g>
</svg>