<?xml version="1.0" encoding="UTF-8"?>
<svg width="512px" height="512px" viewBox="0 0 512 512" version="1.1" xmlns="http://www.w3.org/2000/svg" xmlns:xlink="http://www.w3.org/1999/xlink">
    <!-- Generator: Sketch 48.2 (47327) - http://www.bohemiancoding.com/sketch -->
    <title>twitter</title>
    <desc>Created with Sketch.</desc>
    <defs></defs>
    <g id="Page-1" stroke="none" stroke-width="1" fill="none" fill-rule="evenodd">
        <g id="twitter" fill="#000000" fill-rule="nonzero">
            <path d="M256,0 C397.187879,0 512,114.812121 512,256 C512,397.187879 397.187879,512 256,512 C114.812121,512 0,397.187879 0,256 C0,114.812121 114.812121,0 256,0 Z M355.29697,179.975758 C352.193939,189.284848 345.987879,197.042424 338.230303,203.248485 C345.987879,201.69697 353.745455,200.145455 361.50303,197.042424 C355.29697,204.8 349.090909,211.006061 341.333333,217.212121 L341.333333,221.866667 C341.333333,274.618182 300.993939,335.127273 226.521212,335.127273 C203.248485,335.127273 181.527273,328.921212 164.460606,318.060606 C167.563636,318.060606 170.666667,318.060606 173.769697,318.060606 C192.387879,318.060606 209.454545,311.854545 223.418182,300.993939 C206.351515,300.993939 190.836364,288.581818 186.181818,273.066667 C189.284848,273.066667 190.836364,273.066667 193.939394,273.066667 C198.593939,273.066667 201.69697,273.066667 204.8,271.515152 C186.181818,268.412121 172.218182,251.345455 172.218182,232.727273 C178.424242,235.830303 184.630303,237.381818 190.836364,237.381818 C179.975758,231.175758 172.218182,218.763636 172.218182,204.8 C172.218182,197.042424 175.321212,190.836364 178.424242,184.630303 C197.042424,209.454545 228.072727,224.969697 260.654545,226.521212 C259.10303,223.418182 259.10303,220.315152 259.10303,217.212121 C259.10303,193.939394 277.721212,176.872727 299.442424,176.872727 C311.854545,176.872727 321.163636,181.527273 328.921212,189.284848 C338.230303,187.733333 347.539394,184.630303 355.29697,179.975758 Z M256,496.484848 C389.430303,496.484848 496.484848,387.878788 496.484848,256 C496.484848,124.121212 387.878788,15.5151515 256,15.5151515 C124.121212,15.5151515 15.5151515,124.121212 15.5151515,256 C15.5151515,387.878788 124.121212,496.484848 256,496.484848 Z" id="Combined-Shape"></path>
        </g>
    </g>
</svg>